PathFileType  4	(X/Y/Z) C:\Users\antoi\Documents\MyRepositories\mobilecap\ResultsAnalysis
DataRate	CameraRate	NumFrames	NumMarkers	Units	OrigDataRate	OrigDataStartFrame	OrigNumFrames
100.0	100.0	4	51	mm	100.0	203	231
Frame#	Time	r_knee			r_shank_antsup			r_ankle			r_calc			r_5meta			r_toe			L_knee			L_shank_antsup			L_ankle			L_calc			L_5meta			L_toe			r_sh2			r_sh3			r_sh4			L_sh2			L_sh3			r_thigh1			r_thigh2			r_thigh3			r_thigh4			r_thigh5			L_thigh1			L_thigh2			L_thigh3			L_thigh4			r.ASIS			r.PSIS			L.ASIS			L.PSIS			C7			R_Shoulder			L_Shoulder			R_Sternum			L_Sternum			R_humerus			R_elbow_med			R_elbow_lat			R_forearm			R_wrist_radius			R_wrist_ulna			L_humerus			L_elbow_med			L_elbow_lat			L_forearm			L_wrist_radius			L_wrist_ulna			R_HJC			L_HJC			R_HJC_reg			L_HJC_reg			
		X1	Y1	Z1	X2	Y2	Z2	X3	Y3	Z3	X4	Y4	Z4	X5	Y5	Z5	X6	Y6	Z6	X7	Y7	Z7	X8	Y8	Z8	X9	Y9	Z9	X10	Y10	Z10	X11	Y11	Z11	X12	Y12	Z12	X13	Y13	Z13	X14	Y14	Z14	X15	Y15	Z15	X16	Y16	Z16	X17	Y17	Z17	X18	Y18	Z18	X19	Y19	Z19	X20	Y20	Z20	X21	Y21	Z21	X22	Y22	Z22	X23	Y23	Z23	X24	Y24	Z24	X25	Y25	Z25	X26	Y26	Z26	X27	Y27	Z27	X28	Y28	Z28	X29	Y29	Z29	X30	Y30	Z30	X31	Y31	Z31	X32	Y32	Z32	X33	Y33	Z33	X34	Y34	Z34	X35	Y35	Z35	X36	Y36	Z36	X37	Y37	Z37	X38	Y38	Z38	X39	Y39	Z39	X40	Y40	Z40	X41	Y41	Z41	X42	Y42	Z42	X43	Y43	Z43	X44	Y44	Z44	X45	Y45	Z45	X46	Y46	Z46	X47	Y47	Z47	X48	Y48	Z48	X49	Y49	Z49	X50	Y50	Z50	X51	Y51	Z51	

203	2.02000000	-84.11915	728.67468	-413.32508	-78.80336	659.35647	-382.92738	-124.28472	349.89162	-391.20717	-194.63420	327.06605	-432.58834	-33.36780	272.89138	-365.77362	15.09375	287.49235	-417.40832	-107.11535	716.23813	-782.14824	-83.08406	651.87237	-795.50003	-150.70585	343.96196	-791.40979	-220.03721	329.34327	-735.14133	-81.88995	260.49325	-824.76419	-21.18569	267.89234	-779.05154	-91.03758	547.95316	-367.43449	-150.57526	664.64663	-400.99508	-170.19315	550.19569	-390.65577	-171.32344	669.45238	-796.60400	-182.39511	548.17234	-808.43843	-62.74840	1036.88068	-454.28552	-41.12211	931.12031	-429.36673	-84.23906	903.84036	-389.38475	-159.05137	1028.52836	-396.32357	-140.65521	912.83755	-391.56971	-78.97576	1006.72959	-783.19428	-59.69718	869.12829	-791.59237	-194.93717	990.42485	-786.16740	-166.79552	851.85210	-789.40448	-80.17740	1176.16687	-476.90622	-254.25120	1207.72928	-553.76288	-69.94964	1164.06490	-727.47923	-252.44763	1201.11434	-659.31554	-120.20269	1653.58633	-596.39639	-88.85098	1595.25022	-452.34874	-67.11032	1609.61197	-744.15350	-10.68652	1559.15208	-574.36477	-4.77214	1560.40421	-616.59760	-100.15414	1368.23884	-353.93177	-148.91384	1260.56291	-398.40921	-121.10924	1285.16488	-331.44265	-31.71176	1196.92589	-343.58171	33.09976	1100.05194	-364.70591	7.07168	1077.65601	-336.67530	-36.94571	1489.97907	-807.99329	-117.45706	1280.07365	-806.77651	-81.96903	1289.92356	-858.50239	-2.89981	1207.68230	-832.75754	39.39600	1096.87138	-787.99573	23.32666	1078.00522	-815.91514	-149.65312	1106.06026	-500.34998	-139.91245	1099.42814	-700.29519	-146.44944	1102.23899	-508.81493	-143.62422	1091.87622	-674.17482	
204	2.03000000	-84.20641	712.89579	-412.03323	-79.46331	643.45195	-381.43084	-124.10551	333.45500	-390.25899	-194.42197	311.17211	-432.00805	-33.20451	255.76401	-365.82910	15.33908	271.48274	-417.10576	-103.44381	701.76041	-784.89006	-80.08686	636.70124	-798.49191	-151.79219	329.90195	-793.58282	-220.43906	314.12962	-736.51136	-82.55162	247.60928	-828.39888	-21.40296	255.33051	-783.34058	-91.94774	532.03536	-366.00598	-150.92306	648.66220	-400.86516	-170.60631	534.14287	-390.73787	-168.12090	655.27413	-798.15596	-180.88319	534.29675	-809.96312	-61.41484	1021.27640	-453.31638	-40.84101	915.41122	-427.44352	-84.35664	888.12696	-387.76862	-159.27083	1012.93849	-395.62968	-140.72311	896.94224	-390.62895	-77.84519	992.51035	-783.32219	-57.39651	855.10197	-792.97376	-193.72715	975.17711	-785.72460	-164.31176	836.69481	-790.34076	-80.10865	1160.76467	-475.61390	-253.56174	1191.97221	-552.97011	-70.02230	1147.94932	-725.50813	-252.05532	1185.75576	-658.58274	-118.85139	1637.57869	-596.84519	-87.33191	1580.56517	-452.70425	-65.51597	1593.55568	-744.49749	-9.31967	1543.52922	-574.68570	-3.40074	1544.63344	-616.74729	-97.98019	1354.11328	-353.03542	-146.05776	1245.81797	-396.57383	-118.22038	1270.93242	-330.00197	-26.34120	1185.65124	-342.77356	41.63051	1091.17391	-364.64936	16.67985	1067.92733	-336.56597	-34.16691	1474.18685	-807.44414	-113.20677	1263.86442	-808.52652	-77.80961	1274.04035	-859.75991	2.28559	1192.84574	-833.52625	45.83182	1082.71093	-788.07878	30.21852	1063.55744	-816.00676	-149.71211	1090.62135	-498.93695	-139.64699	1083.49803	-698.84872	-145.87167	1086.12522	-507.44862	-143.51763	1076.41364	-672.42817	
205	2.04000000	-83.93876	696.12450	-410.45723	-79.84222	626.66870	-379.92511	-124.53930	316.27082	-389.78618	-194.67461	294.59730	-432.00057	-33.86444	237.83491	-365.90992	14.88522	254.49830	-416.85340	-99.16755	686.36403	-787.81146	-76.59785	620.59381	-801.62925	-152.73940	315.01548	-795.12204	-220.41906	298.12934	-737.25671	-83.17202	233.83056	-831.54854	-21.47243	241.91710	-787.43229	-92.76495	515.07973	-364.81963	-150.86293	631.99438	-400.66183	-170.99678	517.40038	-391.13410	-164.33450	640.47299	-800.31065	-178.82236	519.79657	-811.83475	-60.56824	1005.11793	-451.52222	-40.61841	898.77068	-425.28773	-84.61687	871.52289	-386.16865	-159.87022	996.09055	-394.87390	-140.91492	880.14527	-389.58435	-76.94485	977.49625	-783.47796	-54.86094	840.39261	-794.22826	-192.64302	958.68813	-785.15258	-161.52812	820.43279	-791.34060	-80.06569	1144.26374	-474.11071	-253.26517	1175.27336	-552.06473	-70.02995	1130.71189	-723.07442	-251.98065	1169.49969	-657.82856	-117.25685	1620.53722	-597.39888	-86.06422	1564.24577	-453.40143	-63.82730	1576.36608	-744.84875	-7.74348	1526.77539	-575.00711	-1.83868	1527.83672	-616.80576	-95.41033	1338.81338	-352.14159	-142.78820	1229.93716	-394.56314	-115.11551	1255.66343	-327.99331	-20.63428	1173.51653	-341.88177	50.63645	1081.74459	-364.43325	26.84417	1057.54505	-336.36106	-31.49230	1457.41006	-807.03340	-108.84251	1246.76558	-810.86019	-73.48352	1257.27715	-861.30935	7.71996	1177.24837	-834.20450	52.71217	1067.84063	-788.12115	37.71437	1048.41752	-816.08861	-150.08837	1074.17022	-497.30067	-139.52166	1066.52616	-697.16795	-145.43159	1068.95669	-505.92006	-143.43433	1059.98007	-670.35596	
206	2.05000000	-83.26317	678.45007	-408.67885	-79.74486	609.05956	-378.31513	-125.59780	298.60486	-389.84714	-195.46479	277.44021	-432.57609	-35.18373	219.58240	-366.06889	13.77731	236.79514	-416.76081	-94.42410	670.00503	-790.75426	-72.72261	603.67441	-804.96497	-153.19531	299.29805	-796.45551	-219.83592	281.62722	-737.53937	-83.60456	218.73079	-834.19833	-21.29940	227.16347	-791.11477	-93.45836	496.95442	-364.46469	-150.20991	614.54872	-400.37095	-171.25446	500.12406	-391.75287	-160.10110	625.01613	-803.04231	-176.39937	504.38884	-813.72821	-60.69021	988.15248	-448.35671	-40.21129	881.22183	-423.32787	-84.97711	853.91166	-384.50864	-160.83875	978.07306	-394.11632	-141.30654	862.31276	-388.54144	-76.46234	961.58542	-783.53090	-52.11202	824.99683	-795.36773	-191.91251	940.79960	-784.29688	-158.45592	803.22665	-792.39965	-80.24389	1126.41354	-472.51614	-253.29757	1157.60672	-551.01984	-70.00705	1112.77085	-720.82392	-252.12900	1152.37190	-657.01426	-115.35214	1602.35847	-597.97771	-84.74482	1546.34563	-454.32024	-62.01511	1558.07950	-745.09213	-6.00687	1508.86862	-575.29005	0.05780	1510.04408	-616.76121	-92.46325	1322.37597	-351.13455	-139.17820	1212.74094	-392.58851	-111.63341	1239.46735	-325.66436	-14.56784	1160.63191	-340.83788	60.16403	1071.94409	-364.39613	37.56514	1046.67598	-336.09902	-28.93866	1439.71309	-806.86266	-104.42405	1228.52392	-812.98559	-68.98358	1239.46499	-862.86567	13.41792	1160.89557	-834.77801	60.20077	1052.35225	-787.93361	45.92327	1032.78143	-816.36946	-150.71095	1056.48168	-495.83829	-139.56965	1048.81504	-695.67321	-145.34630	1050.71618	-504.49359	-143.53795	1042.61380	-668.55275	
